<?xml version="1.0" encoding="UTF-8"?><svg id="Layer_1" xmlns="http://www.w3.org/2000/svg" viewBox="0 0 1061.78 1173.53"><path d="m186.78,695.86c0,91.59-.43,183.18.32,274.77.18,21.6-.74,33.04-25.34,16.58-23.64-15.82-49.51-28.28-73.78-43.22C32.17,909.67,1.05,859.78.62,793.9c-.89-137.97-.79-275.96.09-413.93.42-65.9,30.74-116.94,87.11-150.14C205.54,160.5,323.83,92.1,442.69,24.74c58.13-32.95,118.52-33.09,176.9.21,118.68,67.68,237.19,135.69,354.89,205.07,54.99,32.41,85.81,82.07,86.31,146.81,1.06,139.16,1.35,278.33.47,417.49-.41,64.29-29.53,115.26-84.77,147.8-128.97,75.99-259.22,149.79-388.46,225.32-20.75,12.13-22.72,4.68-22.48-14.21.65-52.33,1.3-104.7-.22-157-.68-23.34,7.61-36.72,27.85-48.08,81.83-45.93,162.26-94.37,244.34-139.84,27.45-15.21,38.45-34.12,38.04-65.4-1.4-105.85-1.16-211.73-.08-317.58.28-27.27-10.07-44.08-33.32-57.28-92.98-52.77-185.59-106.2-277.71-160.46-23.17-13.65-43-14.02-66.28-.3-93.15,54.86-186.8,108.87-280.76,162.32-22.36,12.72-31.08,29.56-30.81,55.04.95,90.39.37,180.8.37,271.2h-.19Z"/><path d="m496.12,895.56c0,85.6-.54,171.2.36,256.79.24,22.74-3.65,26.64-24.36,14.25-63.16-37.78-127.15-74.21-191.27-110.35-18.67-10.52-26.67-24.34-26.61-45.94.47-172.38.41-344.77-.13-517.15-.07-22.01,5.87-23.91,23.83-13.31,64.41,38.04,129.03,75.74,194.38,112.13,19.93,11.1,24.2,26.13,24.04,46.79-.66,85.59-.28,171.19-.24,256.79Z"/><path d="m565.89,742.39c0-36.77-1.72-73.67.92-110.25.94-13.06,9.19-30.71,19.69-37.12,65.69-40.12,133.18-77.28,199.56-116.29,18.16-10.68,21.48-5.06,21.36,13.15-.47,75.91,1,151.86-1.18,227.71-.39,13.53-11.5,31.92-23.17,39.1-64.55,39.72-131.08,76.22-196.32,114.84-19.46,11.52-21.34,3.31-21.12-13.72.5-39.14.16-78.28.16-117.43h.1Z"/><path d="m769.4,408.77c-7.61,4.77-12.36,7.96-17.3,10.81-66.68,38.56-132.92,77.92-200.56,114.74-11,5.99-30.95,5.69-42.05-.35-67.63-36.84-133.75-76.42-200.71-114.52-14.86-8.46-16.96-13.67-.49-23.01,68.04-38.6,135.22-78.72,203.81-116.31,10.1-5.54,28.62-5.1,38.87.53,68.53,37.68,135.88,77.49,203.54,116.75,4.65,2.7,8.64,6.54,14.89,11.36Z"/></svg>